<svg width="43" height="99" viewBox="0 0 43 99" fill="none" xmlns="http://www.w3.org/2000/svg">
<path d="M27.6458 1.00039C27.4761 1.00215 27.3032 1.00634 27.1274 1.01425C11.0397 1.49782 11.8662 34.4394 13.4312 43.2984C15.2629 44.9733 -2.63112 61.143 1.6696 71.3666C4.02067 76.9556 12.2008 76.6379 18.973 76.2049C19.1942 81.0235 19.9599 91.8125 15.4942 93.4463C11.9469 94.7442 5.63596 91.6152 6.32811 85.3743C8.5041 86.8789 8.95455 87.2481 11.8996 88.6714C9.66841 87.0815 6.1937 80.2654 4.76185 86.985C3.26491 94.0101 11.0154 98.9386 16.0981 97.849C23.8186 96.1938 24.8272 84.4324 25.2883 75.6854C28.19 76.3511 49.2772 54.933 39.3736 44.2727C36.4967 41.176 28.0677 37.4329 21.6384 46.2802L20.3268 46.3222C21.4644 46.0834 43.3953 2.42384 27.6458 1V1.00039ZM24.2777 9.75559C24.5676 9.75361 24.8752 9.79793 25.2018 9.89371C30.568 11.6453 21.3422 34.775 18.6141 36.4499C18.4135 35.4307 18.384 9.79977 24.2777 9.75568V9.75559ZM31.8543 46.5896C32.489 46.5884 33.0456 46.856 33.474 47.4905C39.0336 55.7259 24.5446 68.8914 24.2299 68.6988L22.6943 56.5995C22.6943 56.5995 28.4271 46.5958 31.8543 46.5896ZM14.9554 54.5988L18.2191 70.1753C18.2191 70.1753 10.9065 71.798 9.1798 68.0925C7.31003 64.0798 14.9554 54.5988 14.9554 54.5988Z" fill="#FEC8CD" fill-opacity="0.964968" stroke="#EDEBE2" stroke-width="0.264583" stroke-linecap="round" stroke-linejoin="round"/>
</svg>
