<svg width="181" height="114" viewBox="0 0 181 114" fill="none" xmlns="http://www.w3.org/2000/svg">
<path d="M22.5361 29.2676L8.88867 36.4404C6.77279 37.4984 5.35514 38.0273 4.63574 38.0273C3.32389 38.0273 2.37174 37.6253 1.7793 36.8213C1.14453 35.9749 0.827148 34.6842 0.827148 32.9492C0.827148 30.9603 1.25033 28.6751 2.09668 26.0938C2.94303 23.4701 3.91634 21.5446 5.0166 20.3174C6.15918 19.0479 8.8252 17.3128 13.0146 15.1123C17.2464 12.8695 22.3245 10.6266 28.249 8.38379C34.1735 6.14095 40.3519 4.27897 46.7842 2.79785C53.2165 1.31673 59.0986 0.576172 64.4307 0.576172C68.1546 0.576172 70.9053 1.16862 72.6826 2.35352C74.46 3.53841 75.3486 6.66992 75.3486 11.748C75.3486 14.4987 74.3965 17.5667 72.4922 20.9521C70.6302 24.2952 68.3662 27.5537 65.7002 30.7275C63.0765 33.9014 58.1888 39.5296 51.0371 47.6123C54.8457 47.0199 57.6387 46.639 59.416 46.4697C61.1934 46.3005 64.5153 45.9408 69.3818 45.3906C75.0101 37.2656 79.5592 30.791 83.0293 25.9668C86.4993 21.1003 89.4404 17.0801 91.8525 13.9062C94.2646 10.6901 95.7035 8.84928 96.1689 8.38379C97.0153 7.41048 97.7135 7.05078 98.2637 7.30469C98.8561 7.51628 99.1523 8.38379 99.1523 9.90723C99.1523 11.6423 98.9619 13.0599 98.5811 14.1602C98.2425 15.2604 97.6924 16.3607 96.9307 17.4609C96.1689 18.5189 95.7669 19.0902 95.7246 19.1748C94.6243 20.9945 93.0374 23.3854 90.9639 26.3477C88.8903 29.2676 86.859 32.1663 84.8701 35.0439C82.8812 37.9215 80.6172 41.3281 78.0781 45.2637C82.8177 45.4329 87.4938 46.0465 92.1064 47.1045L80.6807 62.5928C77.5492 62.1696 73.3809 61.958 68.1758 61.958C66.9062 64.4971 65.9118 66.486 65.1924 67.9248C64.5153 69.3636 63.9229 70.7389 63.415 72.0508C62.9495 73.3203 62.7168 74.5052 62.7168 75.6055C62.7168 76.2826 62.9072 77.1924 63.2881 78.335C63.7113 79.4352 63.9229 80.07 63.9229 80.2393C63.9229 81.0856 63.2881 81.9954 62.0186 82.9688C60.7913 83.8997 59.3314 84.7249 57.6387 85.4443C55.9883 86.1637 54.6976 86.5234 53.7666 86.5234C52.2008 86.5234 51.418 85.3385 51.418 82.9688C51.418 78.0599 53.9359 71.2256 58.9717 62.4658C52.2855 63.016 44.6048 64.0104 35.9297 65.4492C33.4329 68.75 31.1689 71.8815 29.1377 74.8438C27.1064 77.806 25.4349 80.3027 24.123 82.334C22.8535 84.3652 21.9014 85.7194 21.2666 86.3965C20.6742 87.0736 20.0182 87.4121 19.2988 87.4121C18.0716 87.4121 17.0348 86.8831 16.1885 85.8252C15.8076 85.402 15.5537 84.9788 15.4268 84.5557C15.3421 84.1325 15.2998 83.667 15.2998 83.1592C15.2998 82.6514 15.2998 82.207 15.2998 81.8262C15.2998 81.3184 15.5749 80.5778 16.125 79.6045C16.6751 78.6312 17.987 76.7057 20.0605 73.8281C22.1341 70.9082 23.6576 68.7077 24.6309 67.2266C23.5306 67.3535 22.113 67.417 20.3779 67.417C18.1774 67.417 16.3789 67.015 14.9824 66.2109C13.6283 65.4069 12.9512 64.4124 12.9512 63.2275C12.9512 61.8734 13.3109 60.4346 14.0303 58.9111C14.7497 57.3454 15.6807 56.0547 16.8232 55.0391C17.9658 53.9811 19.1084 53.4521 20.251 53.4521C21.0127 53.4521 21.9225 53.6849 22.9805 54.1504L39.3574 50.0879C48.498 40.1855 55.3112 32.3568 59.7969 26.6016C64.2826 20.8464 66.5254 17.1436 66.5254 15.4932C66.5254 14.5622 66.2715 13.8005 65.7637 13.208C65.2559 12.5732 64.5365 12.0866 63.6055 11.748C62.7168 11.4095 61.68 11.2402 60.4951 11.2402C59.0986 11.2402 56.877 11.6211 53.8301 12.3828C50.8255 13.1445 47.2285 14.266 43.0391 15.7471C38.8496 17.2282 33.6234 19.2806 27.3604 21.9043C22.7054 23.8086 20.3779 25.0146 20.3779 25.5225C20.3779 26.1149 20.6953 26.4958 21.3301 26.665C21.9648 26.8343 22.7689 26.9613 23.7422 27.0459C24.7578 27.1305 25.2656 27.2786 25.2656 27.4902C25.2656 27.6595 25.0117 27.8923 24.5039 28.1885C24.0384 28.4847 23.3825 28.8444 22.5361 29.2676ZM103.215 67.29V68.877C103.215 71.3737 103.828 73.3203 105.056 74.7168C106.283 76.1133 107.891 76.8115 109.88 76.8115C111.953 76.8115 114.09 76.3249 116.291 75.3516C118.534 74.3783 120.756 73.0876 122.956 71.4795C125.157 69.8714 127.844 67.7132 131.018 65.0049V68.877C126.236 74.6322 121.75 79.0544 117.561 82.1436C113.371 85.1904 109.118 86.7139 104.802 86.7139C101.035 86.7139 98.0521 85.2539 95.8516 82.334C93.651 79.4141 92.5508 75.415 92.5508 70.3369C92.5508 65.8936 93.5876 61.8734 95.6611 58.2764C97.7347 54.637 101.12 50.8073 105.817 46.7871C109.034 44.0365 112.229 41.9629 115.402 40.5664C118.576 39.1699 121.411 38.4717 123.908 38.4717C125.897 38.4717 127.463 38.9372 128.605 39.8682C129.79 40.7568 130.383 42.111 130.383 43.9307C130.383 46.5967 129.388 49.2627 127.399 51.9287C125.41 54.5524 122.364 57.1761 118.259 59.7998C114.196 62.3812 109.182 64.8779 103.215 67.29ZM103.85 63.1641C107.658 61.6829 110.917 59.8421 113.625 57.6416C116.333 55.4411 118.322 53.3464 119.592 51.3574C120.904 49.3262 121.56 47.8451 121.56 46.9141C121.56 45.9408 121.115 45.4541 120.227 45.4541C119.465 45.4541 118.216 45.9408 116.481 46.9141C114.789 47.8874 113.054 49.1569 111.276 50.7227C109.541 52.2884 107.976 54.1292 106.579 56.2451C105.183 58.361 104.273 60.6673 103.85 63.1641ZM160.28 67.4805L148.981 77.0654C143.607 81.7627 140.01 84.1113 138.19 84.1113C136.54 84.1113 134.805 82.2282 132.985 78.4619C131.166 74.6533 130.256 71.3314 130.256 68.4961C130.256 66.084 130.616 64.0527 131.335 62.4023C132.097 60.7096 133.387 58.5303 135.207 55.8643C137.788 52.2673 140.264 49.2204 142.634 46.7236C145.004 44.2269 147.098 42.3014 148.918 40.9473C150.738 39.5508 152.007 38.8525 152.727 38.8525C153.869 38.8525 154.969 39.445 156.027 40.6299C157.128 41.8148 157.678 43.042 157.678 44.3115C157.678 45.1156 157.085 46.4062 155.9 48.1836C154.758 49.9609 152.917 52.2249 150.378 54.9756C147.881 57.6839 144.39 60.9424 139.904 64.751L138.698 68.2422C138.36 68.9193 138.19 69.5117 138.19 70.0195C138.19 71.1621 138.762 71.7334 139.904 71.7334C141.089 71.7334 143.861 70.2311 148.22 67.2266C152.621 64.222 157.382 60.1807 162.502 55.1025C164.491 53.1136 166.141 51.3574 167.453 49.834C168.765 48.3105 169.95 46.8929 171.008 45.5811C172.066 44.2269 172.933 43.2113 173.61 42.5342C174.33 41.8571 174.965 41.4974 175.515 41.4551C176.573 41.3281 177.398 41.7725 177.99 42.7881C178.583 43.8037 178.879 45.306 178.879 47.2949C178.879 48.4375 178.371 49.8763 177.355 51.6113C176.34 53.304 174.436 56.224 171.643 60.3711C168.85 64.4759 166.057 68.75 163.264 73.1934C160.513 77.5944 157.699 82.5667 154.821 88.1104C154.948 87.9834 156.239 86.7139 158.693 84.3018C161.19 81.8896 163.814 79.3717 166.564 76.748C169.315 74.1243 171.579 72.0296 173.356 70.4639C175.134 68.8558 177.355 66.9938 180.021 64.8779V69.1309C174.309 75.2669 169.125 81.0856 164.47 86.5869C159.857 92.0882 156.281 96.4893 153.742 99.79C151.245 103.091 149.785 105.016 149.362 105.566C148.22 107.048 147.183 108.423 146.252 109.692C145.363 111.004 144.602 111.999 143.967 112.676C143.374 113.395 142.888 113.755 142.507 113.755C141.618 113.755 140.814 112.866 140.095 111.089C139.418 109.354 139.079 107.809 139.079 106.455C139.079 105.228 139.312 104.149 139.777 103.218C142.824 96.3623 149.659 84.4499 160.28 67.4805Z" fill="#FEC8CD"/>
</svg>
