<?xml version="1.0" encoding="UTF-8" standalone="no"?>
<!-- Created with Inkscape (http://www.inkscape.org/) -->

<svg
   width="13.430078mm"
   height="13.446146mm"
   viewBox="0 0 13.430078 13.446146"
   version="1.1"
   id="svg69717"
   inkscape:version="1.1 (c68e22c387, 2021-05-23)"
   sodipodi:docname="instagram.svg"
   xmlns:inkscape="http://www.inkscape.org/namespaces/inkscape"
   xmlns:sodipodi="http://sodipodi.sourceforge.net/DTD/sodipodi-0.dtd"
   xmlns="http://www.w3.org/2000/svg"
   xmlns:svg="http://www.w3.org/2000/svg">
  <sodipodi:namedview
     id="namedview69719"
     pagecolor="#ffffff"
     bordercolor="#666666"
     borderopacity="1.0"
     inkscape:pageshadow="2"
     inkscape:pageopacity="0.0"
     inkscape:pagecheckerboard="0"
     inkscape:document-units="mm"
     showgrid="false"
     inkscape:zoom="2.1215981"
     inkscape:cx="-29.694597"
     inkscape:cy="72.586792"
     inkscape:window-width="1920"
     inkscape:window-height="1046"
     inkscape:window-x="-11"
     inkscape:window-y="-11"
     inkscape:window-maximized="1"
     inkscape:current-layer="layer1"
     fit-margin-top="0"
     fit-margin-left="0"
     fit-margin-right="0"
     fit-margin-bottom="0" />
  <defs
     id="defs69714" />
  <g
     inkscape:label="Capa 1"
     inkscape:groupmode="layer"
     id="layer1"
     transform="translate(-109.7291,-84.448307)">
    <g
       id="g1414"
       transform="matrix(0.135493,0,0,0.135493,101.52543,74.893963)">
      <path
         style="fill:none;stroke:#edebe2;stroke-width:1.5;stroke-linecap:butt;stroke-linejoin:round;stroke-miterlimit:4;stroke-dasharray:none;stroke-opacity:1"
         d="m 61.436702,98.451716 c 0.236848,5.820644 0.169133,28.607924 -0.139896,44.451054 0.676084,13.60277 13.224705,25.81079 25.542175,25.74769 26.827809,0.43835 28.112969,0.43447 47.642939,0.17803 11.50956,-1.41809 23.11357,-10.94484 24.30469,-25.42364 0.18032,-17.64374 0.18384,-24.9395 -0.0547,-44.224802 1.01683,-14.20736 -12.86442,-28.441848 -27.26795,-27.877786 -17.0933,0.256757 -27.28177,0.04318 -39.491757,0.06641 C 75.024138,69.934274 60.68347,83.708067 61.436702,98.451716 Z"
         id="path69847"
         sodipodi:nodetypes="ccccccccc" />
      <path
         style="fill:none;stroke:#edebe2;stroke-width:1.5;stroke-linecap:round;stroke-linejoin:miter;stroke-miterlimit:4;stroke-dasharray:none;stroke-opacity:1"
         d="m 101.14135,160.21227 c -5.115418,-0.0897 -10.230839,0.12001 -15.346261,-0.26897 -10.056581,-2.13708 -15.327662,-9.62821 -15.87232,-17.72585 l 0.06328,-43.349897 c -0.408916,-5.625059 4.584472,-17.885452 18.10867,-18.841575 15.159681,0.01285 26.366521,-0.0146 41.975061,0.04409 13.7472,-0.225018 19.60343,10.707652 20.03448,17.815857 -0.0359,15.525995 0.14872,26.207495 0.0435,42.533335 0.0409,12.2886 -9.10363,18.53209 -15.23531,19.36815 -8.53417,0.85148 -9.29027,0.34222 -15.90654,0.45604"
         id="path79995"
         sodipodi:nodetypes="cccccccccc" />
      <circle
         style="fill:none;stroke:#edebe2;stroke-width:1.5;stroke-linecap:round;stroke-linejoin:round;stroke-miterlimit:4;stroke-dasharray:none;stroke-opacity:1;paint-order:fill markers stroke"
         id="path83099"
         cx="110.28342"
         cy="119.95143"
         r="15.905613" />
      <circle
         style="fill:none;stroke:#edebe2;stroke-width:1.5;stroke-linecap:round;stroke-linejoin:round;stroke-miterlimit:4;stroke-dasharray:none;stroke-opacity:1;paint-order:fill markers stroke"
         id="path83099-1"
         cx="155.72844"
         cy="55.637379"
         r="5.6947694"
         transform="rotate(15)" />
      <path
         id="path83099-3"
         style="fill:none;stroke:#edebe2;stroke-width:1.5;stroke-linecap:round;stroke-linejoin:round;stroke-miterlimit:4;stroke-dasharray:none;stroke-opacity:1;paint-order:fill markers stroke"
         d="m 98.446668,97.513485 c 3.455902,-1.765369 7.370372,-2.761065 11.517412,-2.761065 14.00191,-10e-7 25.35271,11.3508 25.35271,25.35271 0,14.00192 -11.35079,25.35272 -25.35271,25.35272 -14.001919,0 -25.352714,-11.3508 -25.352712,-25.35272 10e-7,-4.37151 1.282775,-8.92552 3.23084,-12.51546"
         sodipodi:nodetypes="cssssc" />
      <circle
         style="fill:#edebe2;fill-opacity:1;stroke:none;stroke-width:3.16106;stroke-linecap:round;stroke-linejoin:round;stroke-miterlimit:4;stroke-dasharray:none;stroke-opacity:1;paint-order:fill markers stroke"
         id="path84970-5"
         r="1.2716247"
         cy="160.25163"
         cx="110.05609" />
      <circle
         style="fill:#edebe2;fill-opacity:1;stroke:none;stroke-width:3.16106;stroke-linecap:round;stroke-linejoin:round;stroke-miterlimit:4;stroke-dasharray:none;stroke-opacity:1;paint-order:fill markers stroke"
         id="path84970-5-6"
         r="1.2716247"
         cy="102.07799"
         cx="91.801071" />
    </g>
  </g>
</svg>
