<?xml version="1.0" encoding="UTF-8" standalone="no"?>
<!-- Created with Inkscape (http://www.inkscape.org/) -->

<svg
   width="111.83334mm"
   height="115.35521mm"
   viewBox="0 0 111.83334 115.35521"
   version="1.1"
   id="svg24"
   inkscape:version="1.1 (c68e22c387, 2021-05-23)"
   sodipodi:docname="persona.svg"
   xmlns:inkscape="http://www.inkscape.org/namespaces/inkscape"
   xmlns:sodipodi="http://sodipodi.sourceforge.net/DTD/sodipodi-0.dtd"
   xmlns="http://www.w3.org/2000/svg"
   xmlns:svg="http://www.w3.org/2000/svg">
  <sodipodi:namedview
     id="namedview26"
     pagecolor="#ffffff"
     bordercolor="#666666"
     borderopacity="1.0"
     inkscape:pageshadow="2"
     inkscape:pageopacity="0.0"
     inkscape:pagecheckerboard="0"
     inkscape:document-units="mm"
     showgrid="false"
     inkscape:zoom="1.4142136"
     inkscape:cx="126.3936"
     inkscape:cy="216.39612"
     inkscape:window-width="1920"
     inkscape:window-height="1046"
     inkscape:window-x="-11"
     inkscape:window-y="-11"
     inkscape:window-maximized="1"
     inkscape:current-layer="layer1"
     fit-margin-top="0"
     fit-margin-left="0"
     fit-margin-right="0"
     fit-margin-bottom="0" />
  <defs
     id="defs21" />
  <g
     inkscape:label="Capa 1"
     inkscape:groupmode="layer"
     id="layer1"
     transform="translate(-42.438227,-68.95918)">
    <path
       style="fill:#302023;fill-opacity:1;stroke:#302023;stroke-width:0.264583px;stroke-linecap:butt;stroke-linejoin:miter;stroke-opacity:1"
       d="m 102.62859,129.00626 c 0,0 2.40615,-9.70841 3.77317,-13.21782 1.36703,-3.50941 5.96345,-14.3821 2.74874,-24.611305 -2.62644,-9.740028 -10.216239,-19.320208 -18.964335,-16.921001 -1.85922,-4.005481 -8.14291,-5.446658 -12.80554,-5.11986 -6.31671,0.426064 -18.7218,12.364885 -18.3768,22.710377 0.26804,8.03787 3.00481,18.747589 2.03486,23.542329 -2.9144,14.40677 -1.95367,12.31025 -0.0224,17.98599 0.80495,2.36559 2.51592,6.52069 4.57964,5.93487 -1.08643,-3.29511 0.54779,-9.46882 0.54779,-9.46882 0,0 5.34747,11.71046 9.33313,10.87018 -0.93624,-2.8929 -1.63278,-9.77981 -0.50576,-10.01614 0.95545,-0.20036 7.20556,-0.66662 5.66445,-10.42239 0,0 -2.53511,-1.21406 -4.40173,-1.74264 -2.3903,-0.67687 -3.86425,-1.88289 -5.34101,-3.68451 -6.03726,-7.36532 -5.75287,-21.745731 -5.75287,-21.745731 2.76989,-1.259456 17.39661,1.513151 23.024,-10.905117 0,0 -0.85816,7.352727 2.57941,8.55258 6.723386,2.346741 7.059889,5.31726 7.059889,5.31726 4.287896,-4.812013 5.689536,1.229135 5.689536,1.229135 1.20786,7.840303 -5.459761,7.171483 -5.459761,7.171483 -2.580374,14.22596 -7.981074,15.1394 -7.981074,15.1394 -0.47579,1.34756 0.78943,4.67075 2.25253,6.39207 1.15178,1.35506 2.069,2.07318 4.680515,2.56083 2.201312,0.15812 5.64358,0.44883 5.64358,0.44883 z"
       id="path936"
       sodipodi:nodetypes="czcccssacccscsscsscsscaccc" />
    <path
       style="fill:#f8cbb5;fill-opacity:1;stroke:none;stroke-width:0.264583px;stroke-linecap:butt;stroke-linejoin:miter;stroke-opacity:1"
       d="m 97.803224,96.064511 c 4.395196,-4.704764 5.689546,1.229135 5.689546,1.229135 0,0 1.37508,7.603054 -5.459768,7.171484 -1.874467,13.04791 -7.981077,15.1394 -7.981077,15.1394 0,0 -0.75294,7.17231 6.933046,8.9529 -1.982306,3.8195 -13.336976,7.05192 -21.713546,2.16908 7.33271,-1.42971 5.36411,-10.45384 5.36411,-10.45384 -17.78756,-3.49832 -15.57538,-27.312729 -15.49561,-27.172882 0.80402,-1.0105 17.46818,1.515593 23.024,-10.905117 -0.80516,12.634265 5.29693,6.071809 9.639299,13.86984 z"
       id="path14175"
       sodipodi:nodetypes="cccccccccc" />
    <path
       style="fill:#fec8cd;fill-opacity:1;stroke:#fec8cd;stroke-width:0.264583px;stroke-linecap:butt;stroke-linejoin:bevel;stroke-opacity:1"
       d="m 96.984971,128.55743 c 22.986489,1.77284 22.016039,6.73333 30.291809,21.46033 0,0 -7.19862,6.00889 -9.43295,12.34809 -2.87087,-5.07969 -7.9234,-9.03032 -7.9234,-9.03032 0,0 -1.79985,9.68568 -0.93543,29.05188 l -43.205385,0.76045 c 0,0 1.34139,-7.56078 0.43487,-11.32473 -0.61626,-2.55873 -3.16683,-2.85029 -3.37281,-8.81392 0,0 -7.3624,-1.10542 -9.3981,-2.74186 -0.9663,-8.0461 0.39649,-25.76096 7.52923,-26.57752 0,0 2.44046,6.56009 4.62312,5.62001 0,0 -1.05626,-1.77574 0.54779,-9.46882 0,0 5.06713,11.32909 9.33313,10.87018 0,0 -2.16075,-8.05329 -0.20542,-9.98469 14.03769,6.77588 21.713546,-2.16908 21.713546,-2.16908"
       id="path15597"
       sodipodi:nodetypes="ccccccccccccccc" />
    <path
       style="fill:#f8cbb5;fill-opacity:1;stroke:#f8cbb5;stroke-width:0.264583px;stroke-linecap:butt;stroke-linejoin:miter;stroke-opacity:1"
       d="m 56.241045,161.59485 c 0,0 0.0633,6.77996 -1.41857,21.22885 l 10.95714,0.32416 c 0,0 1.25333,-5.44092 0.19187,-12.19172 -3.22396,-3.26851 -3.12981,-7.94693 -3.12981,-7.94693 z"
       id="path18995"
       sodipodi:nodetypes="cccccc" />
    <path
       style="fill:#f8cbb5;fill-opacity:1;stroke:#f8cbb5;stroke-width:0.264583px;stroke-linecap:butt;stroke-linejoin:bevel;stroke-opacity:1"
       d="m 118.78063,160.25872 c 0,0 9.59024,12.31619 15.5829,17.69324 0,0 11.87031,8.68023 12.82477,-12.97225 0.3408,-7.73124 -1.26484,-23.99052 -0.50371,-24.8329 4.58655,-5.07617 3.89857,-10.12593 3.79022,-13.49146 -0.0532,-3.033 -1.81075,-1.52794 3.35216,-12.27912 0.91532,-2.49239 -0.21174,-3.83257 -2.98588,0.26648 0,0 -1.71135,2.35694 -3.72619,7.34516 0.70018,-3.59673 0.3444,-6.41161 2.36706,-11.11169 0.3498,-0.63198 0.59346,-3.83426 -1.36707,-1.94956 0,0 -3.18818,6.62456 -4.71248,12.63108 0.53965,-4.01869 0.46918,-8.22221 2.09947,-13.22714 0.26647,-0.81805 -0.27595,-3.32864 -1.77231,-0.79539 -0.51452,0.87107 -2.67539,7.07809 -3.11953,14.12818 -0.44947,-6.10901 -0.41834,-12.79294 -0.53875,-13.63057 -0.3194,-2.22208 -1.80292,-2.33852 -2.23462,-0.0913 -0.85819,9.45087 0.9016,14.30637 -1.37559,19.14879 -2.16995,-1.74113 -3.00986,-7.63716 -4.80992,-7.04153 -1.46555,1.19859 -0.005,7.84309 2.07861,11.27457 1.52156,2.19799 3.79935,5.92503 5.043,7.47769 1.24364,1.55267 0.52608,7.79312 -0.20632,10.16065 -1.72868,5.58809 -1.92373,13.60486 -1.78375,16.21913 0,0 -2.03728,-4.21354 -10.71836,-14.07618 -5.95043,5.988 -7.28371,9.15414 -7.28371,9.15414 z"
       id="path19657"
       sodipodi:nodetypes="cssscccccccsscscccczscccc" />
    <ellipse
       style="fill:#1a1a1a;fill-rule:evenodd;stroke-width:0.264583"
       id="path41208"
       cx="-85.304779"
       cy="101.75939"
       rx="1.4956921"
       ry="2.5195913"
       transform="scale(-1,1)" />
    <ellipse
       style="fill:#1a1a1a;fill-rule:evenodd;stroke-width:0.264583"
       id="path41208-5"
       cx="-73.439697"
       cy="101.47827"
       rx="1.4956921"
       ry="2.5195913"
       transform="scale(-1,1)" />
    <path
       style="fill:none;stroke:#302023;stroke-width:0.665;stroke-linecap:round;stroke-linejoin:round;stroke-miterlimit:4;stroke-dasharray:none;stroke-opacity:1"
       d="m 84.862745,93.749533 c 2.9434,0.530984 3.6294,2.499962 3.60169,2.486328"
       id="path41371"
       sodipodi:nodetypes="cc" />
    <path
       style="fill:none;stroke:#302023;stroke-width:0.712;stroke-linecap:round;stroke-linejoin:round;stroke-miterlimit:4;stroke-dasharray:none;stroke-opacity:1"
       d="m 75.236125,94.319437 c -2.81662,-0.02296 -3.98437,1.946811 -4.04677,2.058967"
       id="path41371-0"
       sodipodi:nodetypes="cc" />
    <path
       style="fill:none;stroke:#eba2bf;stroke-width:0.312;stroke-linecap:round;stroke-linejoin:round;stroke-miterlimit:4;stroke-dasharray:none;stroke-opacity:1;paint-order:stroke fill markers"
       d="m 67.182635,150.05945 c -1.41443,1.73383 -3.28078,4.71153 -3.93942,7.98883 -0.46317,2.30467 -0.37425,4.91188 -0.40154,4.96093"
       id="path41371-0-47"
       sodipodi:nodetypes="csc" />
    <path
       style="fill:none;stroke:#1a1a1a;stroke-width:0.724;stroke-linecap:round;stroke-linejoin:round;stroke-miterlimit:4;stroke-dasharray:none;stroke-opacity:1"
       d="m 83.508855,112.78274 c 4.49544,0.29653 6.21682,-3.62318 5.85444,-4.23324"
       id="path41371-0-48"
       sodipodi:nodetypes="cc" />
    <path
       style="fill:none;stroke:#1a1a1a;stroke-width:0.712;stroke-linecap:round;stroke-linejoin:round;stroke-miterlimit:4;stroke-dasharray:none;stroke-opacity:1"
       d="m 78.712805,104.18041 c -1.17478,0.19932 -2.03013,0.22193 -2.18925,1.16684 -0.20093,1.19321 1.67239,1.9609 1.67239,1.9609"
       id="path41371-0-4"
       sodipodi:nodetypes="csc" />
    <path
       style="fill:none;stroke:#eba2bf;stroke-width:0.365;stroke-linecap:round;stroke-linejoin:miter;stroke-miterlimit:4;stroke-dasharray:none;stroke-opacity:1"
       d="m 109.92043,153.33553 c -0.77357,-0.81416 -2.28243,-1.58837 -3.05122,-1.83801"
       id="path45647"
       sodipodi:nodetypes="cc" />
    <path
       style="fill:#f4bac6;fill-opacity:1;stroke:#f4bac6;stroke-width:0.264583px;stroke-linecap:round;stroke-linejoin:bevel;stroke-opacity:1"
       d="m 118.78063,160.25872 c -0.34368,0.6806 -0.53781,1.06906 -1.04212,2.03637 1.25305,0.6122 3.17213,0.53061 2.85644,0.15016 l -1.81432,-2.18651"
       id="path46081"
       sodipodi:nodetypes="ccsc" />
    <path
       style="fill:none;stroke:#efb6a1;stroke-width:0.365;stroke-linecap:round;stroke-linejoin:miter;stroke-miterlimit:4;stroke-dasharray:none;stroke-opacity:1"
       d="m 80.635535,120.27267 c 0.91424,0.3861 2.51993,0.42027 4.18809,0.4995"
       id="path48453"
       sodipodi:nodetypes="cc" />
    <path
       style="fill:none;stroke:#efb6a1;stroke-width:0.465;stroke-linecap:round;stroke-linejoin:miter;stroke-miterlimit:4;stroke-dasharray:none;stroke-opacity:1"
       d="m 136.66012,126.86834 c 2.08613,1.54978 3.88073,3.16149 4.42219,3.90142 0.39982,0.54637 0.64821,1.4494 0.64821,1.4494"
       id="path48906"
       sodipodi:nodetypes="csc" />
    <path
       style="fill:none;stroke:#efb6a1;stroke-width:0.465;stroke-linecap:round;stroke-linejoin:miter;stroke-miterlimit:4;stroke-dasharray:none;stroke-opacity:1"
       d="m 144.41888,125.87662 c 0,0 0.77726,0.7264 1.39257,1.58866 0.61531,0.86226 1.83636,1.10938 1.83636,1.10938"
       id="path49872"
       sodipodi:nodetypes="czc" />
    <path
       style="fill:none;stroke:#edebe2;stroke-width:2.965;stroke-linecap:butt;stroke-linejoin:miter;stroke-miterlimit:4;stroke-dasharray:none;stroke-opacity:1"
       d="m 147.11016,182.75369 -104.670825,0.0782"
       id="path50458"
       sodipodi:nodetypes="cc" />
    <path
       style="fill:#f4bac6;fill-opacity:1;stroke:none;stroke-width:0.264583px;stroke-linecap:butt;stroke-linejoin:miter;stroke-opacity:1"
       d="m 75.271425,130.72651 3.082403,1.21447 c -1.745942,2.80343 -2.505257,5.69195 -2.876983,8.77022 -2.702493,-9.69994 0.08217,-10.04549 -0.20542,-9.98469"
       id="path3319"
       sodipodi:nodetypes="cccc" />
    <path
       style="fill:#f4bac6;fill-opacity:1;stroke:none;stroke-width:0.264583px;stroke-linecap:butt;stroke-linejoin:miter;stroke-opacity:1"
       d="m 109.98657,153.57252 -1.01632,27.72288 c 0,0 -2.50373,-0.0223 -4.70549,-0.0623 0.72701,-10.41702 2.53831,-29.57026 2.53831,-29.57026"
       id="path3319-4"
       sodipodi:nodetypes="cccc" />
    <path
       style="fill:#f4bac6;fill-opacity:1;stroke:none;stroke-width:0.264583px;stroke-linecap:butt;stroke-linejoin:miter;stroke-opacity:1"
       d="m 119.97254,157.80293 c 0,0 -1.19191,2.45581 -2.23403,4.49216 -1.92616,-3.16389 -4.91076,-6.73548 -7.75194,-8.72257"
       id="path3319-4-1"
       sodipodi:nodetypes="ccc" />
    <path
       style="fill:#f4bac6;fill-opacity:1;stroke:none;stroke-width:0.264583px;stroke-linecap:butt;stroke-linejoin:miter;stroke-opacity:1"
       d="m 66.143715,129.84102 1.737614,3.08836 c -1.745942,2.80343 -2.108434,3.72988 -2.48016,6.80815 -1.37975,-5.22466 1.030136,-9.95731 0.742546,-9.89651"
       id="path3319-7"
       sodipodi:nodetypes="cccc" />
    <path
       style="fill:#eec1ac;fill-opacity:1;stroke:#eec1ac;stroke-width:0.264583px;stroke-linecap:butt;stroke-linejoin:miter;stroke-opacity:1"
       d="m 62.841675,163.00921 c 0,0 -4.199239,-0.90657 -6.60063,-1.41436 0,0 -0.0238,-0.0315 -0.09239,1.68095 0.454475,0.24102 4.682778,0.70756 4.949291,1.18346 0.631166,3.1032 5.372722,9.63814 5.372722,9.63814 0,0 -0.02622,-1.03884 -0.499186,-3.14126 -3.203573,-3.27744 -3.12981,-7.94693 -3.129809,-7.94693 z"
       id="path11830"
       sodipodi:nodetypes="ccccccc" />
    <path
       style="fill:#f4bac6;fill-opacity:1;stroke:#f4bac6;stroke-width:0.265;stroke-linecap:butt;stroke-linejoin:round;stroke-miterlimit:4;stroke-dasharray:none;stroke-opacity:1"
       d="m 64.707201,153.3508 c -3.589683,3.33101 -3.823182,8.92669 -3.823182,8.92669 l 1.709468,0.38617 c 0.110682,-3.6391 0.19516,-5.82179 2.113714,-9.31286 z"
       id="path18416"
       sodipodi:nodetypes="cccc" />
    <path
       style="fill:#eec1ac;fill-opacity:1;stroke:#eec1ac;stroke-width:0.265;stroke-linecap:butt;stroke-linejoin:round;stroke-miterlimit:4;stroke-dasharray:none;stroke-opacity:1"
       d="m 126.06434,151.1046 1.06525,1.29977 c 0,0 -4.70601,4.51047 -5.01632,7.51788 -0.3103,3.0074 12.25026,18.02971 12.25026,18.02971 0,0 -11.68107,-12.36641 -15.39713,-17.79804 1.66431,-3.84698 7.09794,-9.04932 7.09794,-9.04932 z"
       id="path19971"
       sodipodi:nodetypes="cczccc" />
    <path
       style="fill:#eec1ac;fill-opacity:1;stroke:#eec1ac;stroke-width:0.265;stroke-linecap:round;stroke-linejoin:miter;stroke-miterlimit:4;stroke-dasharray:none;stroke-opacity:1"
       d="m 80.740356,120.61574 c 1.067155,5.73871 -1.881911,8.29721 -1.924022,8.53248 l 5.815431,-8.08676 c -1.670051,-0.11401 -2.395075,0.003 -3.891409,-0.44572"
       id="path21579"
       sodipodi:nodetypes="cccc" />
    <path
       style="fill:#eec1ac;fill-opacity:1;stroke:#eec1ac;stroke-width:0.274717px;stroke-linecap:butt;stroke-linejoin:round;stroke-opacity:1"
       d="m 146.4858,140.52101 c -1.3742,-0.008 -3.03187,0.0338 -2.98244,1.32715 0.0393,1.02843 2.98029,1.63305 2.98029,1.63305 0.0127,-0.026 -0.0731,-1.02093 0.002,-2.9602 z"
       id="path25338"
       sodipodi:nodetypes="cscc" />
    <path
       style="fill:#eec1ac;fill-opacity:1;stroke:#eec1ac;stroke-width:0.265;stroke-linecap:butt;stroke-linejoin:miter;stroke-miterlimit:4.1;stroke-dasharray:none;stroke-opacity:1"
       d="m 137.06002,125.56988 c 0,0 -0.0184,0.0682 -0.34579,0.98433 1.59814,0.892 3.9824,3.30006 3.9824,3.30006 -1.75189,-2.0621 -1.32527,-2.1764 -3.60843,-4.15296"
       id="path26019"
       sodipodi:nodetypes="cccc" />
    <path
       style="fill:#eec1ac;fill-opacity:1;stroke:#eec1ac;stroke-width:0.265;stroke-linecap:butt;stroke-linejoin:round;stroke-miterlimit:4;stroke-dasharray:none;stroke-opacity:1"
       d="m 88.163923,82.194671 c -4.266585,9.77854 -13.608634,9.695572 -23.023998,10.905117 l 0.03126,1.317626 C 87.128689,92.078175 85.273919,86.981193 88.163928,82.194671 Z"
       id="path44096"
       sodipodi:nodetypes="ccccc" />
    <path
       style="fill:#eec1ac;fill-opacity:1;stroke:#eec1ac;stroke-width:0.265;stroke-linecap:butt;stroke-linejoin:round;stroke-miterlimit:4;stroke-dasharray:none;stroke-opacity:1"
       d="m 91.482361,91.250614 c 2.395601,1.669202 3.200898,1.575546 4.849073,3.408644 0.422046,0.469398 1.471789,1.405248 1.471789,1.405248 -2.679111,-4.119592 -5.21872,-4.179038 -6.320862,-4.813892 z"
       id="path47703"
       sodipodi:nodetypes="cscc" />
    <path
       style="fill:#251a18;fill-opacity:1;stroke:#251a18;stroke-width:0.264583px;stroke-linecap:butt;stroke-linejoin:miter;stroke-opacity:1"
       d="m 98.033,104.46513 c -1.470779,7.64773 -4.39658,16.85068 -5.302085,21.83793 -1.071261,-0.95684 -2.514138,-2.99262 -2.50929,-6.63462 4.089656,-2.2991 6.443444,-6.60473 7.811375,-15.20331"
       id="path50892"
       sodipodi:nodetypes="cccc" />
    <path
       style="fill:#251a18;fill-opacity:1;stroke:#251a18;stroke-width:0.264583px;stroke-linecap:butt;stroke-linejoin:miter;stroke-opacity:1"
       d="m 76.94767,119.31409 -2.017414,11.38394 c 1.806724,-0.44921 6.364886,-1.38847 5.568203,-10.31246 0.06908,0.002 -0.771759,-0.0716 -3.550789,-1.07148 z"
       id="path54822"
       sodipodi:nodetypes="cccc" />
    <path
       style="fill:#eec1ac;fill-opacity:1;stroke:#eec1ac;stroke-width:0.264583px;stroke-linecap:butt;stroke-linejoin:miter;stroke-opacity:1"
       d="m 147.6247,120.85384 0.28342,0.20858 2.65455,-5.99211 c -1.02402,1.72266 -2.06444,3.63864 -2.93797,5.78353 z"
       id="path60101"
       sodipodi:nodetypes="cccc" />
    <path
       style="fill:#eec1ac;fill-opacity:1;stroke:#eec1ac;stroke-width:0.264583px;stroke-linecap:butt;stroke-linejoin:miter;stroke-opacity:1"
       d="m 143.78071,120.23541 0.27226,0.11497 1.83659,-6.23015 c -0.63976,1.62668 -1.43158,3.73403 -2.10885,6.11518 z"
       id="path60101-3"
       sodipodi:nodetypes="cccc" />
    <path
       style="fill:#eec1ac;fill-opacity:1;stroke:#eec1ac;stroke-width:0.264583px;stroke-linecap:butt;stroke-linejoin:miter;stroke-opacity:1"
       d="m 140.8381,119.78662 0.18145,0.0896 0.80256,-6.14513 c -0.46713,1.80131 -0.94275,5.0019 -0.98401,6.05549 z"
       id="path60101-3-7"
       sodipodi:nodetypes="cccc" />
  </g>
</svg>
