<svg width="265" height="56" viewBox="0 0 265 56" fill="none" xmlns="http://www.w3.org/2000/svg">
<path d="M13.72 41.385C11.1533 41.385 8.84333 40.945 6.79 40.065C4.73667 39.1483 3.12333 37.865 1.95 36.215C0.776667 34.565 0.19 32.64 0.19 30.44H6.9C7.04667 32.09 7.68833 33.4467 8.825 34.51C9.99833 35.5733 11.63 36.105 13.72 36.105C15.8833 36.105 17.57 35.5917 18.78 34.565C19.99 33.5017 20.595 32.145 20.595 30.495C20.595 29.2117 20.21 28.1667 19.44 27.36C18.7067 26.5533 17.7717 25.93 16.635 25.49C15.535 25.05 13.995 24.5733 12.015 24.06C9.52167 23.4 7.48667 22.74 5.91 22.08C4.37 21.3833 3.05 20.32 1.95 18.89C0.85 17.46 0.3 15.5533 0.3 13.17C0.3 10.97 0.85 9.045 1.95 7.395C3.05 5.745 4.59 4.48 6.57 3.6C8.55 2.72 10.8417 2.28 13.445 2.28C17.1483 2.28 20.1733 3.215 22.52 5.085C24.9033 6.91833 26.2233 9.44833 26.48 12.675H19.55C19.44 11.2817 18.78 10.09 17.57 9.1C16.36 8.11 14.765 7.615 12.785 7.615C10.9883 7.615 9.52167 8.07333 8.385 8.99C7.24833 9.90666 6.68 11.2267 6.68 12.95C6.68 14.1233 7.02833 15.095 7.725 15.865C8.45833 16.5983 9.375 17.185 10.475 17.625C11.575 18.065 13.0783 18.5417 14.985 19.055C17.515 19.7517 19.5683 20.4483 21.145 21.145C22.7583 21.8417 24.115 22.9233 25.215 24.39C26.3517 25.82 26.92 27.745 26.92 30.165C26.92 32.1083 26.3883 33.9417 25.325 35.665C24.2983 37.3883 22.7767 38.7817 20.76 39.845C18.78 40.8717 16.4333 41.385 13.72 41.385ZM47.4634 41.495C44.6034 41.495 42.0184 40.8533 39.7084 39.57C37.3984 38.25 35.5834 36.4167 34.2634 34.07C32.9434 31.6867 32.2834 28.9367 32.2834 25.82C32.2834 22.74 32.9617 20.0083 34.3184 17.625C35.675 15.2417 37.5267 13.4083 39.8734 12.125C42.22 10.8417 44.8417 10.2 47.7384 10.2C50.635 10.2 53.2567 10.8417 55.6034 12.125C57.95 13.4083 59.8017 15.2417 61.1584 17.625C62.515 20.0083 63.1934 22.74 63.1934 25.82C63.1934 28.9 62.4967 31.6317 61.1034 34.015C59.71 36.3983 57.8034 38.25 55.3834 39.57C53 40.8533 50.36 41.495 47.4634 41.495ZM47.4634 36.05C49.0767 36.05 50.58 35.665 51.9734 34.895C53.4034 34.125 54.5584 32.97 55.4384 31.43C56.3184 29.89 56.7584 28.02 56.7584 25.82C56.7584 23.62 56.3367 21.7683 55.4934 20.265C54.65 18.725 53.5317 17.57 52.1384 16.8C50.745 16.03 49.2417 15.645 47.6284 15.645C46.015 15.645 44.5117 16.03 43.1184 16.8C41.7617 17.57 40.68 18.725 39.8734 20.265C39.0667 21.7683 38.6634 23.62 38.6634 25.82C38.6634 29.0833 39.4884 31.6133 41.1384 33.41C42.825 35.17 44.9334 36.05 47.4634 36.05ZM96.6716 10.695L78.0816 55.245H71.5916L77.7516 40.505L65.8166 10.695H72.8016L81.3266 33.795L90.1816 10.695H96.6716ZM142.42 14.16C142.42 16.1033 141.962 17.9367 141.045 19.66C140.129 21.3833 138.662 22.795 136.645 23.895C134.629 24.9583 132.044 25.49 128.89 25.49H121.96V41H115.69V2.775H128.89C131.824 2.775 134.299 3.28833 136.315 4.315C138.369 5.305 139.89 6.66166 140.88 8.385C141.907 10.1083 142.42 12.0333 142.42 14.16ZM128.89 20.375C131.274 20.375 133.052 19.8433 134.225 18.78C135.399 17.68 135.985 16.14 135.985 14.16C135.985 9.98 133.62 7.89 128.89 7.89H121.96V20.375H128.89ZM146.31 25.71C146.31 22.6667 146.934 19.9717 148.18 17.625C149.464 15.2783 151.187 13.4633 153.35 12.18C155.55 10.86 157.97 10.2 160.61 10.2C162.994 10.2 165.065 10.6767 166.825 11.63C168.622 12.5467 170.052 13.7017 171.115 15.095V10.695H177.44V41H171.115V36.49C170.052 37.92 168.604 39.1117 166.77 40.065C164.937 41.0183 162.847 41.495 160.5 41.495C157.897 41.495 155.514 40.835 153.35 39.515C151.187 38.1583 149.464 36.2883 148.18 33.905C146.934 31.485 146.31 28.7533 146.31 25.71ZM171.115 25.82C171.115 23.73 170.675 21.915 169.795 20.375C168.952 18.835 167.834 17.6617 166.44 16.855C165.047 16.0483 163.544 15.645 161.93 15.645C160.317 15.645 158.814 16.0483 157.42 16.855C156.027 17.625 154.89 18.78 154.01 20.32C153.167 21.8233 152.745 23.62 152.745 25.71C152.745 27.8 153.167 29.6333 154.01 31.21C154.89 32.7867 156.027 33.9967 157.42 34.84C158.85 35.6467 160.354 36.05 161.93 36.05C163.544 36.05 165.047 35.6467 166.44 34.84C167.834 34.0333 168.952 32.86 169.795 31.32C170.675 29.7433 171.115 27.91 171.115 25.82ZM213.121 10.695V41H206.851V37.425C205.861 38.6717 204.559 39.6617 202.946 40.395C201.369 41.0917 199.682 41.44 197.886 41.44C195.502 41.44 193.357 40.945 191.451 39.955C189.581 38.965 188.096 37.4983 186.996 35.555C185.932 33.6117 185.401 31.265 185.401 28.515V10.695H191.616V27.58C191.616 30.2933 192.294 32.3833 193.651 33.85C195.007 35.28 196.859 35.995 199.206 35.995C201.552 35.995 203.404 35.28 204.761 33.85C206.154 32.3833 206.851 30.2933 206.851 27.58V10.695H213.121ZM227.664 0.299999V41H221.394V0.299999H227.664ZM233.806 25.71C233.806 22.6667 234.429 19.9717 235.676 17.625C236.959 15.2783 238.682 13.4633 240.846 12.18C243.046 10.86 245.466 10.2 248.106 10.2C250.489 10.2 252.561 10.6767 254.321 11.63C256.117 12.5467 257.547 13.7017 258.611 15.095V10.695H264.936V41H258.611V36.49C257.547 37.92 256.099 39.1117 254.266 40.065C252.432 41.0183 250.342 41.495 247.996 41.495C245.392 41.495 243.009 40.835 240.846 39.515C238.682 38.1583 236.959 36.2883 235.676 33.905C234.429 31.485 233.806 28.7533 233.806 25.71ZM258.611 25.82C258.611 23.73 258.171 21.915 257.291 20.375C256.447 18.835 255.329 17.6617 253.936 16.855C252.542 16.0483 251.039 15.645 249.426 15.645C247.812 15.645 246.309 16.0483 244.916 16.855C243.522 17.625 242.386 18.78 241.506 20.32C240.662 21.8233 240.241 23.62 240.241 25.71C240.241 27.8 240.662 29.6333 241.506 31.21C242.386 32.7867 243.522 33.9967 244.916 34.84C246.346 35.6467 247.849 36.05 249.426 36.05C251.039 36.05 252.542 35.6467 253.936 34.84C255.329 34.0333 256.447 32.86 257.291 31.32C258.171 29.7433 258.611 27.91 258.611 25.82Z" fill="#EDEBE2"/>
</svg>
