<svg width="22" height="43" viewBox="0 0 22 43" fill="none" xmlns="http://www.w3.org/2000/svg">
<path d="M4.315 8.68C3.17833 8.68 2.225 8.295 1.455 7.525C0.685 6.755 0.3 5.80167 0.3 4.665C0.3 3.52833 0.685 2.575 1.455 1.805C2.225 1.035 3.17833 0.649998 4.315 0.649998C5.415 0.649998 6.35 1.035 7.12 1.805C7.89 2.575 8.275 3.52833 8.275 4.665C8.275 5.80167 7.89 6.755 7.12 7.525C6.35 8.295 5.415 8.68 4.315 8.68ZM7.395 12.695V43H1.125V12.695H7.395ZM21.897 2.3V43H15.627V2.3H21.897Z" fill="#EDEBE2"/>
</svg>
