<?xml version="1.0" encoding="UTF-8" standalone="no"?>
<!-- Created with Inkscape (http://www.inkscape.org/) -->

<svg
   width="161.5771mm"
   height="108.51225mm"
   viewBox="0 0 161.5771 108.51226"
   version="1.1"
   id="svg825"
   inkscape:version="1.1 (c68e22c387, 2021-05-23)"
   sodipodi:docname="piano.svg"
   xmlns:inkscape="http://www.inkscape.org/namespaces/inkscape"
   xmlns:sodipodi="http://sodipodi.sourceforge.net/DTD/sodipodi-0.dtd"
   xmlns="http://www.w3.org/2000/svg"
   xmlns:svg="http://www.w3.org/2000/svg">
  <sodipodi:namedview
     id="namedview827"
     pagecolor="#ffffff"
     bordercolor="#666666"
     borderopacity="1.0"
     inkscape:pageshadow="2"
     inkscape:pageopacity="0.0"
     inkscape:pagecheckerboard="0"
     inkscape:document-units="mm"
     showgrid="false"
     inkscape:zoom="1"
     inkscape:cx="28"
     inkscape:cy="425"
     inkscape:window-width="2880"
     inkscape:window-height="1586"
     inkscape:window-x="2869"
     inkscape:window-y="111"
     inkscape:window-maximized="1"
     inkscape:current-layer="layer1"
     fit-margin-top="0"
     fit-margin-left="0"
     fit-margin-right="0"
     fit-margin-bottom="0" />
  <defs
     id="defs822" />
  <g
     inkscape:label="Capa 1"
     inkscape:groupmode="layer"
     id="layer1"
     transform="translate(-22.015325,-64.663298)">
    <path
       style="fill:none;stroke:#000000;stroke-width:0.7642;stroke-linecap:butt;stroke-linejoin:miter;stroke-miterlimit:4;stroke-dasharray:none;stroke-opacity:1"
       d="m 22.429698,173.08178 c -0.52466,-0.52466 20.03885,-16.77896 26.58643,-19.23571 8.26611,-3.10156 26.82871,-4.26342 20.32353,0.76841 -2.51939,1.94877 -2.95759,-3.63179 -2.96019,-5.86179 0.66407,-6.04308 4.81083,-17.2322 1.75277,-17.24684 -3.55294,-1.98354 -6.90152,-2.21643 -13.18419,-4.43309 -2.21749,0.24737 -6.99414,-5.86415 -2.0454,-9.3846 l 5.32615,-0.0825 c 2.25149,0.0973 3.40901,-1.28502 3.62387,-3.94348 0.65698,-3.16275 -2.22538,-5.9759 1.90411,-5.8554 8.56602,0.58139 24.72568,1.73041 25.65858,4.49469 0.90923,-0.23152 3.76184,13.23136 -10.66832,11.79972 -5.44331,-0.89711 -10.41435,-2.8931 -20.98773,-4.71544 -3.42616,0.0382 -5.96202,1.45266 0.6157,4.49079 6.29619,2.07131 12.50374,2.7264 18.75454,4.07245 2.28654,-0.38208 3.1741,-1.86805 2.10901,-2.58188 -1.03332,-0.69256 -3.55357,3.65087 -2.35791,6.24236 2.03854,2.96999 4.557,2.8345 7.04637,2.88725 8.42706,0.0772 24.971282,0.37411 36.409442,0.69672 1.5948,0.34594 1.65044,-0.40931 2.74641,-2.89467 1.86909,-4.23889 5.77209,-4.62494 11.11052,-3.78664 l 20.8392,1.77036 c 7.62069,-0.58157 5.24443,17.85701 6.84585,23.03481 -0.32723,2.04025 1.02767,8.65514 -3.37463,5.51992 -2.57449,-1.83353 2.71361,-3.37103 5.71656,-7.06993 2.71986,-4.14802 0.99502,-8.14391 2.07197,-14.13237 1.20826,-4.95098 5.13135,-2.30203 9.97037,-5.60369 4.17571,-4.6082 2.70654,-10.73972 2.62539,-12.83817 -0.54628,-4.2524 -65.37905,-6.63746 -80.684062,-7.07503 -2.47025,-0.0706 -3.85575,0.73538 -3.45433,2.2577 -0.27112,8.24086 -0.21363,9.60067 -2.53711,11.68516 -3.79633,1.63543 -4.87615,1.46022 -8.60447,2.2407 -4.14158,0.67815 -1.68252,2.08158 0.29365,2.80825 17.134712,5.07818 14.44114,18.26277 9.5628,34.5972 -0.81454,2.72737 1.67451,3.38849 2.75902,3.78129 4.261772,0.38768 4.262542,-1.51501 5.170282,-3.072 0.49778,-3.2363 -7.678692,-1.66713 -4.511182,-3.60205 l 2.21119,0.0143 c 2.225592,-7.38546 1.441112,-13.58467 2.428212,-21.29295 0.9747,-5.74929 11.82687,-3.49057 19.79798,-5.34471 4.1357,-0.77095 3.67256,-1.804 3.76056,-2.6316 0.74038,-6.96341 1.06412,-11.56016 2.91476,-17.00414 4.556,-7.17728 11.57179,-4.72501 15.25499,-4.80616 25.0462,1.95251 52.83956,-10.86676 24.26737,-19.800141 -8.06006,-2.02075 -17.02349,-1.4958 -28.62053,-4.9637 -5.88262,-2.01284 -7.75063,-4.1213 -7.3459,-8.98331 1.4948,-4.41734 14.36061,-9.96428 -0.0218,-11.36958 -8.44591,-0.30267 -16.21083,-3.97099 -21.71448,1.94382 -10.464662,12.30945 -19.305452,22.32501 -28.259572,34.564221 -2.64913,3.10267 -0.23836,3.43695 1.79377,3.97847 l 31.491762,3.42299 c 1.68465,-0.18309 4.60092,1.41784 3.37607,-2.97857 -2.48293,-9.191391 -6.15056,-29.254001 -7.3197,-26.187961 l -0.43967,16.03291"
       id="path869-4"
       sodipodi:nodetypes="cssccccccccccccscccscccsccccsccccsccccccsccccccccccccc" />
  </g>
</svg>
